<?xml version="1.0" standalone="no"?>
<!DOCTYPE svg PUBLIC "-//W3C//DTD SVG 20010904//EN"
 "http://www.w3.org/TR/2001/REC-SVG-20010904/DTD/svg10.dtd">
<svg version="1.0" xmlns="http://www.w3.org/2000/svg"
 width="512.000000pt" height="512.000000pt" viewBox="0 0 512.000000 512.000000"
 preserveAspectRatio="xMidYMid meet">

<g transform="translate(0.000000,512.000000) scale(0.100000,-0.100000)"
fill="#000000" stroke="none">
<path d="M1535 5114 c-117 -30 -202 -107 -239 -219 -15 -46 -73 -106 -645
-680 -346 -346 -634 -640 -640 -652 -14 -28 -14 -56 1 -87 7 -16 162 -139 387
-307 207 -155 380 -286 386 -290 5 -6 -103 -122 -277 -297 -311 -312 -317
-321 -281 -386 10 -18 495 -487 1078 -1041 583 -555 1094 -1041 1136 -1082 71
-67 80 -73 119 -73 39 0 48 6 119 73 42 41 553 528 1136 1082 583 555 1065
1016 1071 1024 19 27 25 68 13 98 -5 15 -137 155 -292 310 -154 155 -279 284
-276 286 2 3 175 133 384 290 239 178 385 295 393 311 15 33 15 61 1 89 -6 12
-296 308 -645 657 -379 380 -634 643 -634 654 0 29 -61 135 -93 162 -16 14
-53 37 -81 52 -43 22 -63 26 -136 26 -98 0 -75 10 -443 -191 l-227 -125 -46
31 c-80 53 -149 74 -244 74 -95 0 -164 -21 -243 -74 l-46 -31 -228 125 c-339
185 -345 188 -422 192 -36 2 -75 2 -86 -1z m365 -356 c237 -131 245 -136 243
-164 -2 -16 -3 -67 -3 -114 0 -47 1 -98 3 -114 2 -28 -6 -33 -248 -167 -284
-156 -307 -163 -367 -110 l-33 29 0 360 0 360 24 26 c29 31 76 46 111 36 14
-4 135 -68 270 -142z m1700 107 l25 -25 0 -361 0 -361 -33 -29 c-60 -53 -83
-46 -367 110 -242 134 -250 139 -248 167 2 16 3 67 3 114 0 47 -1 98 -3 114
-2 28 6 33 233 159 129 71 250 135 269 142 43 16 86 5 121 -30z m-926 -205
c20 -14 49 -43 64 -64 24 -35 27 -49 27 -116 0 -67 -3 -81 -27 -116 -15 -21
-44 -50 -65 -64 -31 -21 -48 -25 -113 -25 -65 0 -82 4 -113 25 -81 55 -118
161 -88 253 14 41 72 104 115 123 50 23 155 14 200 -16z m-1362 -636 c37 -71
70 -107 120 -133 l43 -23 0 -332 c0 -352 8 -445 61 -761 96 -575 320 -1293
643 -2064 33 -80 59 -146 58 -147 -1 -1 -1689 1604 -1749 1664 -10 10 45 70
279 305 313 315 320 324 288 389 -11 24 -116 109 -401 322 l-385 290 503 503
503 503 5 -232 c5 -229 6 -234 32 -284z m3533 -495 c-3 -3 -176 -134 -385
-290 -404 -301 -419 -315 -405 -382 6 -25 75 -100 298 -324 160 -161 287 -296
283 -300 -44 -45 -1752 -1670 -1754 -1668 -1 1 14 40 34 86 237 553 471 1238
583 1709 113 479 157 854 149 1266 l-5 240 44 24 c51 27 84 63 121 134 27 50
27 53 30 285 l4 234 503 -503 c277 -277 502 -507 500 -511z m-2527 601 c76
-51 147 -73 242 -73 95 0 164 21 243 74 l47 31 247 -135 c137 -75 265 -143
285 -153 20 -9 40 -24 43 -32 3 -8 8 -100 11 -206 22 -671 -155 -1471 -555
-2506 -97 -250 -311 -750 -321 -750 -9 0 -218 487 -314 732 -330 844 -513
1557 -557 2163 -11 154 -7 533 6 567 4 9 20 22 37 29 16 7 143 74 281 150 139
76 254 138 257 139 3 0 25 -14 48 -30z"/>
<path d="M2507 3616 c-49 -18 -64 -32 -89 -80 -52 -102 26 -226 142 -226 80 0
148 61 157 142 13 112 -103 203 -210 164z"/>
<path d="M2480 2748 c-75 -52 -99 -131 -61 -205 58 -116 224 -116 282 0 53
103 -24 227 -141 227 -32 0 -57 -7 -80 -22z"/>
<path d="M2495 1906 c-101 -44 -125 -178 -46 -257 65 -65 157 -65 222 0 124
124 -15 327 -176 257z"/>
</g>
</svg>
