<?xml version="1.0" standalone="no"?>
<!DOCTYPE svg PUBLIC "-//W3C//DTD SVG 20010904//EN"
 "http://www.w3.org/TR/2001/REC-SVG-20010904/DTD/svg10.dtd">
<svg version="1.0" xmlns="http://www.w3.org/2000/svg"
 width="512.000000pt" height="512.000000pt" viewBox="0 0 512.000000 512.000000"
 preserveAspectRatio="xMidYMid meet">

<g transform="translate(0.000000,512.000000) scale(0.100000,-0.100000)"
fill="#000000" stroke="none">
<path d="M2796 3676 c-42 -16 -100 -67 -121 -106 -7 -14 -160 -441 -339 -948
-233 -659 -326 -935 -326 -965 0 -47 30 -120 63 -156 33 -36 115 -71 167 -71
56 0 137 37 171 77 14 17 35 55 47 84 43 108 639 1805 645 1837 16 81 -34 184
-110 229 -53 31 -141 40 -197 19z m123 -141 c42 -21 54 -65 35 -123 -9 -26
-155 -441 -325 -922 -330 -934 -324 -920 -390 -920 -37 0 -89 48 -89 82 0 18
485 1408 632 1811 29 80 75 104 137 72z"/>
<path d="M1515 3461 c-27 -13 -168 -147 -422 -402 -409 -412 -403 -404 -403
-507 0 -23 7 -59 15 -80 23 -54 755 -787 813 -814 48 -22 131 -26 177 -8 119
45 178 191 124 310 -14 33 -94 120 -297 322 l-277 278 277 277 c201 202 282
290 297 323 69 152 -41 320 -208 320 -33 0 -72 -8 -96 -19z m160 -146 c18 -17
25 -35 25 -62 0 -36 -13 -51 -312 -350 -275 -276 -311 -315 -311 -343 0 -28
36 -67 311 -343 299 -299 312 -314 312 -350 0 -52 -35 -87 -87 -87 -37 0 -51
13 -411 373 -345 346 -372 375 -372 407 0 32 27 61 372 407 360 360 374 373
411 373 27 0 45 -7 62 -25z"/>
<path d="M3390 3448 c-99 -60 -137 -182 -89 -288 15 -33 96 -121 297 -323
l277 -277 -282 -283 c-194 -194 -286 -294 -297 -321 -48 -116 8 -255 121 -303
47 -19 140 -16 188 6 27 13 168 147 422 402 404 407 403 406 403 499 0 93 1
92 -403 499 -254 255 -395 389 -422 402 -25 12 -63 19 -100 19 -51 0 -70 -5
-115 -32z m528 -481 c346 -346 372 -375 372 -407 0 -32 -26 -61 -373 -407
-358 -359 -374 -373 -410 -373 -52 0 -87 35 -87 87 0 36 13 51 312 350 275
276 311 315 311 343 0 28 -36 67 -311 343 -299 299 -312 314 -312 350 0 52 35
87 87 87 37 0 51 -13 411 -373z"/>
</g>
</svg>
