<?xml version="1.0" standalone="no"?>
<!DOCTYPE svg PUBLIC "-//W3C//DTD SVG 20010904//EN"
 "http://www.w3.org/TR/2001/REC-SVG-20010904/DTD/svg10.dtd">
<svg version="1.0" xmlns="http://www.w3.org/2000/svg"
 width="512.000000pt" height="512.000000pt" viewBox="0 0 512.000000 512.000000"
 preserveAspectRatio="xMidYMid meet">
<metadata>
Created by potrace 1.16, written by Peter Selinger 2001-2019
</metadata>
<g transform="translate(0.000000,512.000000) scale(0.100000,-0.100000)"
fill="#000000" stroke="none">
<path d="M626 4716 c-73 -31 -138 -93 -174 -166 -23 -47 -27 -68 -27 -140 0
-71 4 -94 27 -142 32 -68 94 -130 159 -161 l49 -22 0 -423 c0 -433 1 -450 39
-479 11 -9 78 -12 232 -13 l217 0 7 -67 c7 -69 48 -341 61 -400 l7 -33 -285 0
-285 0 -17 44 c-23 60 -83 126 -147 161 -50 28 -61 30 -159 30 -117 0 -155
-13 -229 -80 -63 -57 -94 -127 -99 -221 -8 -145 48 -249 169 -314 60 -33 70
-35 159 -35 84 0 101 3 148 28 67 35 121 91 151 156 l24 51 307 0 306 0 23
-77 c24 -84 112 -314 143 -376 l18 -37 -350 0 c-383 0 -410 -4 -430 -55 -6
-16 -10 -200 -10 -468 l0 -442 -49 -22 c-65 -31 -127 -93 -159 -161 -23 -48
-27 -71 -27 -142 0 -72 4 -93 28 -141 36 -75 107 -140 183 -169 48 -18 73 -21
135 -18 134 8 230 73 287 197 37 79 37 192 0 271 -31 68 -94 132 -159 161
l-49 23 0 388 0 388 353 0 352 -1 35 -52 c130 -193 344 -393 555 -519 135 -81
372 -188 416 -188 29 0 178 63 288 121 262 140 465 312 642 547 l70 92 365 0
364 0 0 -388 0 -389 -42 -19 c-56 -25 -129 -98 -158 -159 -21 -42 -25 -64 -25
-145 0 -80 4 -103 24 -144 31 -63 86 -118 153 -153 47 -25 64 -28 148 -28 81
0 103 4 145 24 63 32 124 93 156 156 34 70 35 216 2 288 -28 61 -110 140 -168
162 l-45 18 0 453 0 453 -24 28 -24 28 -381 3 c-210 1 -381 4 -381 6 0 1 18
45 41 97 23 52 63 159 90 239 l49 145 308 3 308 2 24 -51 c31 -65 85 -121 152
-156 47 -25 64 -28 148 -28 89 0 99 2 159 35 121 65 177 169 169 314 -5 94
-36 164 -99 221 -74 67 -112 80 -229 80 -98 0 -109 -2 -159 -30 -64 -35 -124
-101 -147 -161 l-17 -44 -289 0 c-271 0 -289 1 -284 18 13 42 75 432 76 475 0
4 104 7 230 7 l231 0 24 25 25 24 0 434 0 434 46 18 c67 25 146 107 172 178
47 125 21 266 -66 355 -74 75 -128 97 -242 97 -84 0 -101 -3 -148 -28 -67 -35
-122 -90 -153 -153 -20 -41 -24 -64 -24 -144 0 -81 4 -103 25 -145 29 -61 102
-134 158 -159 l42 -19 0 -369 0 -368 -151 0 -152 0 6 58 c21 202 29 375 18
398 -19 43 -63 54 -156 38 -131 -22 -291 -28 -388 -15 -269 36 -533 172 -766
395 -146 141 -147 141 -294 -2 -129 -124 -225 -195 -350 -258 -235 -119 -499
-159 -781 -120 -106 15 -119 14 -153 -17 -19 -17 -23 -31 -23 -77 0 -60 17
-301 25 -362 l5 -38 -140 0 -140 0 0 368 0 367 55 29 c197 102 241 358 90 524
-56 63 -131 95 -229 99 -69 3 -90 0 -140 -21z m204 -185 c14 -10 35 -33 48
-51 83 -122 -89 -281 -208 -192 -37 28 -63 78 -63 122 0 112 134 185 223 121z
m3640 0 c39 -28 70 -80 70 -119 0 -82 -88 -161 -166 -149 -72 12 -127 76 -127
148 0 111 135 183 223 120z m-1799 -530 c150 -128 335 -231 519 -291 174 -57
231 -65 447 -65 l192 0 -5 -40 c-2 -22 -11 -116 -20 -210 -79 -868 -251 -1362
-599 -1723 -116 -121 -252 -227 -391 -305 -113 -63 -234 -117 -261 -117 -33 0
-316 149 -407 214 -464 334 -698 818 -805 1661 -17 131 -51 476 -51 512 0 5
76 9 183 9 205 0 319 16 477 66 204 65 372 163 518 303 l87 83 26 -22 c14 -11
55 -45 90 -75z m-2288 -1285 c44 -18 83 -66 91 -111 6 -28 2 -48 -16 -83 -43
-86 -141 -113 -213 -57 -38 28 -65 77 -65 117 0 41 38 103 77 126 44 25 80 28
126 8z m4478 -8 c50 -28 84 -93 75 -146 -8 -50 -34 -83 -88 -110 -40 -20 -51
-22 -86 -13 -55 15 -88 44 -107 95 -21 54 -9 109 32 148 54 52 113 61 174 26z
m-4046 -1868 c99 -48 112 -170 26 -243 -103 -86 -266 18 -230 147 18 66 77
115 138 116 14 0 43 -9 66 -20z m3640 0 c45 -22 85 -80 85 -123 0 -65 -50
-131 -114 -148 -101 -27 -203 74 -175 175 18 66 77 115 138 116 14 0 43 -9 66
-20z"/>
<path d="M2783 3378 c-38 -10 -67 -57 -60 -94 2 -14 -1 -24 -7 -24 -42 0 -222
-123 -267 -182 -56 -75 -109 -187 -109 -232 0 -18 -5 -16 -37 15 -60 55 -96
77 -168 100 -83 27 -163 23 -252 -13 -59 -24 -61 -24 -84 -7 -43 33 -117 19
-138 -28 -28 -61 3 -127 64 -139 45 -8 91 19 106 63 9 28 14 33 32 27 154 -47
243 -212 287 -532 10 -74 20 -136 23 -138 2 -3 29 -13 60 -24 108 -38 491 -44
619 -10 84 23 93 32 106 105 32 172 130 313 264 381 55 28 68 30 68 9 0 -9 12
-27 26 -40 90 -83 211 50 125 136 -34 33 -69 37 -112 12 -25 -15 -30 -15 -46
-1 -34 29 -128 67 -188 77 -93 14 -192 -8 -247 -56 -22 -20 -34 -11 -62 46
-56 109 -74 250 -43 336 14 40 15 40 60 37 58 -5 94 18 103 64 6 34 -9 88 -28
100 -23 14 -66 20 -95 12z"/>
</g>
</svg>
